<svg id="svg" version="1.1" xmlns="http://www.w3.org/2000/svg" xmlns:xlink="http://www.w3.org/1999/xlink" width="400" height="400" viewBox="0, 0, 400,400"><g id="svgg"><path id="path0" d="M194.844 13.009 C 76.360 16.852,-8.300 126.163,17.654 241.794 C 34.083 314.991,94.989 372.397,169.063 384.502 C 294.913 405.069,403.472 298.234,384.963 172.031 C 371.355 79.249,288.530 9.971,194.844 13.009 M211.094 23.131 C 295.690 28.709,364.812 93.098,375.618 176.390 C 376.840 185.809,377.020 188.845,377.020 200.000 C 377.020 299.577,295.699 379.244,196.250 377.092 C 86.244 374.712,5.004 273.814,26.109 165.781 C 43.073 78.943,122.982 17.322,211.094 23.131 M141.883 53.672 C 142.209 54.660,151.560 83.594,162.664 117.969 C 173.767 152.344,184.326 185.004,186.128 190.547 L 189.404 200.625 199.780 200.620 L 210.156 200.615 233.725 126.636 C 246.688 85.947,257.356 52.479,257.431 52.262 C 257.541 51.949,254.627 51.885,243.087 51.950 L 228.604 52.031 214.224 101.316 C 206.315 128.422,199.763 150.675,199.663 150.767 C 199.537 150.884,172.876 59.372,171.011 52.422 C 170.874 51.911,169.896 51.875,156.078 51.875 L 141.291 51.875 141.883 53.672 M66.771 125.208 C 66.656 125.323,66.563 158.447,66.563 198.817 L 66.563 272.218 92.422 272.099 C 120.846 271.968,120.175 272.010,126.297 269.975 C 154.456 260.615,164.300 224.042,144.834 201.096 C 143.594 199.634,143.118 198.848,143.312 198.579 C 143.467 198.365,144.533 196.958,145.680 195.453 C 165.777 169.103,151.213 131.994,118.281 125.639 C 114.941 124.995,67.382 124.597,66.771 125.208 M257.813 198.610 L 257.813 272.220 283.828 272.105 C 309.302 271.993,309.907 271.976,312.889 271.302 C 344.169 264.227,356.774 226.816,336.447 201.386 L 334.300 198.701 335.231 197.710 C 342.084 190.409,346.288 178.141,345.850 166.719 C 345.048 145.821,331.129 129.962,309.795 125.643 C 306.752 125.027,305.607 125.000,282.217 125.000 L 257.813 125.000 257.813 198.610 M120.983 153.672 C 131.685 158.942,131.207 178.726,120.245 184.210 L 118.041 185.313 105.739 185.313 L 93.438 185.313 93.438 168.893 L 93.438 152.474 106.179 152.565 L 118.921 152.656 120.983 153.672 M312.247 153.529 C 323.005 158.813,322.501 178.704,311.469 184.223 L 309.291 185.313 297.146 185.313 L 285.000 185.313 285.000 168.890 L 285.000 152.468 297.734 152.562 L 310.469 152.656 312.247 153.529 M115.973 211.877 C 130.466 214.582,133.466 238.013,120.149 244.504 C 116.622 246.224,116.385 246.250,104.482 246.250 L 93.438 246.250 93.438 229.115 C 93.438 219.690,93.531 211.885,93.646 211.771 C 93.981 211.436,114.123 211.531,115.973 211.877 M307.350 211.903 C 321.134 214.451,324.723 236.497,312.554 243.871 C 308.763 246.168,308.192 246.250,295.947 246.250 L 285.000 246.250 285.000 228.906 L 285.000 211.563 295.255 211.563 C 301.311 211.563,306.264 211.702,307.350 211.903 M167.426 275.614 C 159.530 277.058,153.193 282.429,150.495 289.963 L 149.531 292.656 149.441 312.344 C 149.326 337.195,149.626 338.767,155.609 344.683 C 167.455 356.394,186.594 351.692,191.931 335.759 L 192.656 333.594 192.656 313.281 L 192.656 292.969 191.927 290.781 C 188.388 280.174,177.921 273.694,167.426 275.614 M225.469 275.508 C 222.082 276.175,221.159 276.422,219.531 277.099 C 213.786 279.487,209.369 284.151,207.263 290.052 C 206.179 293.089,205.851 302.240,206.692 306.017 C 209.314 317.804,222.588 326.226,233.379 322.951 C 234.185 322.707,234.949 322.505,235.078 322.503 C 235.626 322.495,235.318 331.364,234.725 332.656 C 231.964 338.677,221.568 337.591,221.561 331.282 C 221.555 326.771,221.173 326.563,212.899 326.563 L 206.250 326.563 206.250 329.481 C 206.250 353.569,240.678 359.445,248.654 336.719 L 249.531 334.219 249.622 314.104 C 249.725 291.437,249.726 291.453,247.303 286.637 C 243.472 279.026,233.477 273.931,225.469 275.508 M231.583 291.484 C 236.246 293.849,237.023 303.601,232.813 306.920 C 229.507 309.525,224.221 308.419,222.283 304.716 C 221.254 302.750,221.216 296.539,222.219 294.465 C 223.865 291.066,228.099 289.718,231.583 291.484 M173.906 291.521 C 178.047 293.407,178.122 293.805,178.120 314.063 L 178.119 331.094 177.374 332.693 C 174.747 338.336,166.028 337.845,164.394 331.962 C 163.921 330.258,163.944 297.188,164.419 295.601 C 165.548 291.834,170.200 289.833,173.906 291.521 " stroke="none" fill="#040404" fill-rule="evenodd"></path><path id="path1" d="M187.813 3.788 C 92.712 9.655,15.384 83.084,4.711 177.657 C -9.488 303.471,96.488 409.447,222.344 395.289 C 321.473 384.138,396.563 299.967,396.563 200.000 C 396.563 86.668,300.959 -3.192,187.813 3.788 M212.188 13.131 C 325.290 20.928,405.270 124.969,383.708 236.250 C 364.559 335.083,268.679 401.462,169.273 384.705 C 64.611 367.063,-4.362 266.916,16.452 162.813 C 34.713 71.472,119.372 6.732,212.188 13.131 M188.750 23.328 C 188.148 23.385,185.898 23.581,183.750 23.763 C 106.361 30.348,41.101 89.271,26.284 165.938 C 23.887 178.342,23.281 185.211,23.281 200.000 C 23.281 315.148,130.402 399.188,242.344 371.863 C 312.001 354.860,365.006 296.462,375.136 225.559 C 376.547 215.686,376.719 212.910,376.719 200.000 C 376.719 106.733,305.820 30.362,212.813 23.440 C 209.003 23.157,191.438 23.075,188.750 23.328 M171.508 53.516 C 171.836 54.590,178.268 76.808,185.803 102.889 C 193.338 128.970,199.600 150.205,199.719 150.077 C 199.838 149.949,206.373 127.730,214.241 100.703 L 228.546 51.562 243.200 51.563 L 257.855 51.563 257.634 52.266 C 257.513 52.652,246.816 86.196,233.863 126.807 C 220.910 167.419,210.313 200.713,210.313 200.796 C 210.313 200.878,205.569 200.909,199.772 200.864 L 189.231 200.781 166.189 129.531 C 153.516 90.344,142.668 56.770,142.081 54.922 L 141.015 51.563 155.964 51.563 L 170.912 51.563 171.508 53.516 M121.719 126.173 C 135.618 130.212,145.221 138.008,150.782 149.766 C 157.797 164.598,155.485 183.500,145.049 196.632 L 143.223 198.930 144.602 200.480 C 165.715 224.237,153.919 263.048,123.123 271.148 L 119.844 272.010 93.203 272.110 L 66.563 272.211 66.563 198.595 L 66.563 124.979 92.422 125.077 L 118.281 125.174 121.719 126.173 M313.047 126.171 C 344.893 135.178,356.775 171.655,336.116 196.990 L 334.620 198.824 335.287 199.646 C 343.400 209.653,346.412 217.679,346.385 229.219 C 346.337 249.559,333.712 266.042,314.245 271.179 L 311.094 272.010 284.297 272.110 L 257.500 272.211 257.500 198.595 L 257.500 124.979 283.516 125.078 L 309.531 125.177 313.047 126.171 M93.750 169.073 L 93.750 185.334 105.867 185.245 L 117.983 185.156 120.031 184.148 C 129.535 179.467,131.594 162.991,123.590 155.676 C 120.482 152.836,120.341 152.813,106.082 152.813 L 93.750 152.813 93.750 169.073 M285.313 169.060 L 285.313 185.334 297.273 185.245 L 309.233 185.156 311.263 184.157 C 322.189 178.776,322.899 159.363,312.372 153.808 L 310.781 152.969 298.047 152.877 L 285.313 152.786 285.313 169.060 M93.750 229.063 L 93.750 246.250 104.096 246.250 C 117.463 246.250,119.651 245.719,123.933 241.437 C 132.461 232.909,128.679 215.955,117.472 212.467 C 115.758 211.934,114.489 211.875,104.660 211.875 L 93.750 211.875 93.750 229.063 M285.313 229.063 L 285.313 246.250 295.725 246.250 C 307.121 246.250,307.669 246.182,311.387 244.305 C 321.192 239.357,322.841 224.545,314.531 216.065 C 310.687 212.142,309.544 211.883,296.016 211.879 L 285.313 211.875 285.313 229.063 M176.876 275.959 C 183.024 277.663,187.872 281.657,190.744 287.386 C 193.020 291.926,192.969 291.328,192.969 313.281 C 192.969 331.449,192.924 333.126,192.394 335.000 C 186.413 356.145,157.442 356.894,150.101 336.094 L 149.219 333.594 149.219 313.281 L 149.219 292.969 150.070 290.469 C 153.904 279.210,165.655 272.849,176.876 275.959 M233.750 275.796 C 240.979 277.486,246.748 283.055,249.112 290.625 L 249.844 292.969 249.844 313.125 C 249.844 333.238,249.842 333.287,249.124 335.767 C 242.057 360.174,206.064 354.259,205.948 328.672 L 205.938 326.250 212.480 326.250 C 220.908 326.250,221.563 326.543,221.563 330.307 C 221.563 336.859,230.884 338.987,234.280 333.210 C 235.139 331.749,235.155 331.632,235.084 327.376 C 235.000 322.265,235.217 322.682,232.948 323.274 C 221.715 326.199,208.445 317.158,206.357 305.156 C 205.761 301.729,205.940 293.896,206.675 291.298 C 209.897 279.895,221.895 273.026,233.750 275.796 M168.978 291.340 C 167.368 291.857,165.749 293.220,164.999 294.689 C 164.273 296.112,164.006 330.543,164.707 332.402 C 166.693 337.669,174.872 337.850,177.221 332.678 C 177.985 330.996,178.137 297.006,177.388 295.215 C 176.143 292.235,172.056 290.352,168.978 291.340 M225.384 291.599 C 220.005 294.261,220.024 304.864,225.411 307.472 C 229.257 309.334,233.965 307.260,234.972 303.261 C 237.054 294.995,231.694 288.475,225.384 291.599 " stroke="none" fill="#fbe304" fill-rule="evenodd"></path><path id="path2" d="M194.766 23.028 C 195.066 23.107,195.559 23.107,195.859 23.028 C 196.160 22.949,195.914 22.885,195.313 22.885 C 194.711 22.885,194.465 22.949,194.766 23.028 M204.141 23.028 C 204.441 23.107,204.934 23.107,205.234 23.028 C 205.535 22.949,205.289 22.885,204.688 22.885 C 204.086 22.885,203.840 22.949,204.141 23.028 M332.031 67.500 C 333.225 68.703,334.272 69.688,334.358 69.688 C 334.444 69.688,333.538 68.703,332.344 67.500 C 331.150 66.297,330.103 65.313,330.017 65.313 C 329.931 65.313,330.837 66.297,332.031 67.500 M67.489 67.734 L 65.781 69.531 67.578 67.823 C 69.247 66.236,69.518 65.938,69.286 65.938 C 69.237 65.938,68.429 66.746,67.489 67.734 M257.654 198.750 C 257.654 239.227,257.690 255.785,257.734 235.547 C 257.779 215.309,257.779 182.191,257.734 161.953 C 257.690 141.715,257.654 158.273,257.654 198.750 M346.034 168.281 C 346.036 169.313,346.094 169.697,346.164 169.135 C 346.234 168.573,346.232 167.730,346.161 167.260 C 346.089 166.790,346.033 167.250,346.034 168.281 M376.948 195.313 C 376.948 195.914,377.012 196.160,377.090 195.859 C 377.169 195.559,377.169 195.066,377.090 194.766 C 377.012 194.465,376.948 194.711,376.948 195.313 M376.948 204.688 C 376.948 205.289,377.012 205.535,377.090 205.234 C 377.169 204.934,377.169 204.441,377.090 204.141 C 377.012 203.840,376.948 204.086,376.948 204.688 M227.891 290.840 C 228.191 290.919,228.684 290.919,228.984 290.840 C 229.285 290.762,229.039 290.698,228.438 290.698 C 227.836 290.698,227.590 290.762,227.891 290.840 M206.054 299.219 C 206.055 301.109,206.107 301.843,206.169 300.848 C 206.231 299.853,206.230 298.307,206.167 297.410 C 206.105 296.514,206.054 297.328,206.054 299.219 M192.958 313.281 C 192.958 322.734,192.998 326.647,193.047 321.975 C 193.095 317.304,193.095 309.569,193.047 304.788 C 192.998 300.006,192.958 303.828,192.958 313.281 M177.958 313.750 C 177.958 322.945,177.998 326.707,178.047 322.109 C 178.095 317.512,178.095 309.988,178.047 305.391 C 177.998 300.793,177.958 304.555,177.958 313.750 M206.141 326.484 C 206.061 326.613,207.987 326.682,210.420 326.638 C 218.473 326.491,219.303 326.375,212.753 326.312 C 209.197 326.278,206.221 326.355,206.141 326.484 M206.010 329.688 C 206.010 330.289,206.074 330.535,206.153 330.234 C 206.232 329.934,206.232 329.441,206.153 329.141 C 206.074 328.840,206.010 329.086,206.010 329.688 M67.500 332.344 C 68.434 333.289,69.268 334.063,69.354 334.063 C 69.440 334.063,68.746 333.289,67.813 332.344 C 66.879 331.398,66.045 330.625,65.959 330.625 C 65.873 330.625,66.566 331.398,67.500 332.344 M332.021 332.578 L 330.156 334.531 332.109 332.666 C 333.924 330.933,334.205 330.625,333.975 330.625 C 333.926 330.625,333.047 331.504,332.021 332.578 M194.766 377.090 C 195.066 377.169,195.559 377.169,195.859 377.090 C 196.160 377.012,195.914 376.948,195.313 376.948 C 194.711 376.948,194.465 377.012,194.766 377.090 M204.141 377.090 C 204.441 377.169,204.934 377.169,205.234 377.090 C 205.535 377.012,205.289 376.948,204.688 376.948 C 204.086 376.948,203.840 377.012,204.141 377.090 " stroke="none" fill="#9a8904" fill-rule="evenodd"></path><path id="path3" d="M194.290 13.038 C 194.845 13.107,195.829 13.108,196.477 13.041 C 197.126 12.973,196.672 12.916,195.469 12.915 C 194.266 12.914,193.735 12.969,194.290 13.038 M203.352 13.038 C 203.907 13.107,204.892 13.108,205.540 13.041 C 206.188 12.973,205.734 12.916,204.531 12.915 C 203.328 12.914,202.798 12.969,203.352 13.038 M192.422 23.033 C 192.809 23.108,193.441 23.108,193.828 23.033 C 194.215 22.959,193.898 22.898,193.125 22.898 C 192.352 22.898,192.035 22.959,192.422 23.033 M206.172 23.033 C 206.559 23.108,207.191 23.108,207.578 23.033 C 207.965 22.959,207.648 22.898,206.875 22.898 C 206.102 22.898,205.785 22.959,206.172 23.033 M148.693 51.797 C 152.873 51.846,159.623 51.846,163.693 51.797 C 167.764 51.747,164.344 51.707,156.094 51.707 C 147.844 51.707,144.514 51.747,148.693 51.797 M228.642 51.797 C 228.510 52.010,239.307 52.006,252.500 51.788 C 255.336 51.741,251.161 51.671,243.222 51.633 C 235.282 51.594,228.722 51.668,228.642 51.797 M93.583 168.906 C 93.583 178.016,93.623 181.697,93.672 177.087 C 93.720 172.478,93.720 165.025,93.672 160.525 C 93.623 156.025,93.583 159.797,93.583 168.906 M285.146 168.906 C 285.146 178.016,285.185 181.697,285.234 177.087 C 285.283 172.478,285.283 165.025,285.234 160.525 C 285.185 156.025,285.145 159.797,285.146 168.906 M22.891 193.281 C 22.895 193.969,22.959 194.213,23.034 193.824 C 23.108 193.436,23.105 192.873,23.027 192.574 C 22.949 192.276,22.888 192.594,22.891 193.281 M376.954 193.281 C 376.957 193.969,377.021 194.213,377.096 193.824 C 377.171 193.436,377.168 192.873,377.090 192.574 C 377.011 192.276,376.950 192.594,376.954 193.281 M12.909 195.156 C 12.911 196.188,12.969 196.572,13.039 196.010 C 13.109 195.448,13.107 194.605,13.036 194.135 C 12.964 193.665,12.908 194.125,12.909 195.156 M386.975 195.313 C 386.975 196.430,387.032 196.887,387.101 196.328 C 387.170 195.770,387.170 194.855,387.101 194.297 C 387.032 193.738,386.975 194.195,386.975 195.313 M194.453 200.859 C 197.332 200.910,202.043 200.910,204.922 200.859 C 207.801 200.807,205.445 200.765,199.688 200.765 C 193.930 200.765,191.574 200.807,194.453 200.859 M386.975 204.688 C 386.975 205.805,387.032 206.262,387.101 205.703 C 387.170 205.145,387.170 204.230,387.101 203.672 C 387.032 203.113,386.975 203.570,386.975 204.688 M12.909 204.844 C 12.911 205.875,12.969 206.259,13.039 205.698 C 13.109 205.136,13.107 204.292,13.036 203.823 C 12.964 203.353,12.908 203.813,12.909 204.844 M22.891 206.719 C 22.895 207.406,22.959 207.651,23.034 207.262 C 23.108 206.873,23.105 206.311,23.027 206.012 C 22.949 205.713,22.888 206.031,22.891 206.719 M376.954 206.719 C 376.957 207.406,377.021 207.651,377.096 207.262 C 377.171 206.873,377.168 206.311,377.090 206.012 C 377.011 205.713,376.950 206.031,376.954 206.719 M93.581 211.953 C 93.499 212.168,93.469 220.008,93.515 229.375 L 93.599 246.406 93.675 229.145 L 93.750 211.883 104.453 211.797 L 115.156 211.710 104.443 211.636 C 96.106 211.579,93.697 211.649,93.581 211.953 M285.075 228.984 L 285.151 246.406 285.234 229.145 L 285.318 211.883 295.862 211.797 L 306.406 211.710 295.703 211.636 L 285.000 211.563 285.075 228.984 M314.375 215.781 C 314.958 216.383,315.505 216.875,315.591 216.875 C 315.677 216.875,315.271 216.383,314.688 215.781 C 314.104 215.180,313.557 214.688,313.471 214.688 C 313.385 214.688,313.792 215.180,314.375 215.781 M346.359 229.063 C 346.359 230.523,346.413 231.121,346.479 230.391 C 346.545 229.660,346.545 228.465,346.479 227.734 C 346.413 227.004,346.359 227.602,346.359 229.063 M155.085 229.063 C 155.085 229.836,155.146 230.152,155.221 229.766 C 155.295 229.379,155.295 228.746,155.221 228.359 C 155.146 227.973,155.085 228.289,155.085 229.063 M333.427 260.234 L 331.719 262.031 333.516 260.323 C 335.185 258.736,335.456 258.438,335.224 258.438 C 335.175 258.438,334.366 259.246,333.427 260.234 M142.012 260.391 L 141.094 261.406 142.109 260.488 C 143.056 259.633,143.269 259.375,143.027 259.375 C 142.973 259.375,142.516 259.832,142.012 260.391 M249.834 313.125 C 249.834 322.836,249.873 326.809,249.922 321.953 C 249.970 317.098,249.970 309.152,249.922 304.297 C 249.873 299.441,249.834 303.414,249.834 313.125 M149.208 313.281 C 149.208 322.734,149.248 326.647,149.297 321.975 C 149.345 317.304,149.345 309.569,149.297 304.788 C 149.248 300.006,149.208 303.828,149.208 313.281 M206.010 327.813 C 206.010 328.414,206.074 328.660,206.153 328.359 C 206.232 328.059,206.232 327.566,206.153 327.266 C 206.074 326.965,206.010 327.211,206.010 327.813 M170.391 336.778 C 170.691 336.857,171.184 336.857,171.484 336.778 C 171.785 336.699,171.539 336.635,170.938 336.635 C 170.336 336.635,170.090 336.699,170.391 336.778 M212.188 344.531 C 212.771 345.133,213.318 345.625,213.404 345.625 C 213.490 345.625,213.083 345.133,212.500 344.531 C 211.917 343.930,211.370 343.438,211.284 343.438 C 211.198 343.438,211.604 343.930,212.188 344.531 M243.421 345.234 L 242.344 346.406 243.516 345.329 C 244.606 344.327,244.831 344.063,244.593 344.063 C 244.540 344.063,244.013 344.590,243.421 345.234 M192.422 377.096 C 192.809 377.170,193.441 377.170,193.828 377.096 C 194.215 377.021,193.898 376.960,193.125 376.960 C 192.352 376.960,192.035 377.021,192.422 377.096 M206.172 377.096 C 206.559 377.170,207.191 377.170,207.578 377.096 C 207.965 377.021,207.648 376.960,206.875 376.960 C 206.102 376.960,205.785 377.021,206.172 377.096 M194.453 387.103 C 195.098 387.170,196.152 387.170,196.797 387.103 C 197.441 387.035,196.914 386.980,195.625 386.980 C 194.336 386.980,193.809 387.035,194.453 387.103 M203.203 387.103 C 203.848 387.170,204.902 387.170,205.547 387.103 C 206.191 387.035,205.664 386.980,204.375 386.980 C 203.086 386.980,202.559 387.035,203.203 387.103 " stroke="none" fill="#7c6c04" fill-rule="evenodd"></path><path id="path4" d="M198.047 23.044 C 199.121 23.105,200.879 23.105,201.953 23.044 C 203.027 22.983,202.148 22.933,200.000 22.933 C 197.852 22.933,196.973 22.983,198.047 23.044 M328.125 63.535 C 328.125 63.589,328.582 64.046,329.141 64.551 L 330.156 65.469 329.238 64.453 C 328.383 63.506,328.125 63.294,328.125 63.535 M70.296 64.922 L 69.219 66.094 70.391 65.017 C 71.481 64.014,71.706 63.750,71.468 63.750 C 71.415 63.750,70.888 64.277,70.296 64.922 M64.517 70.703 L 63.281 72.031 64.609 70.796 C 65.340 70.117,65.938 69.519,65.938 69.468 C 65.938 69.231,65.665 69.468,64.517 70.703 M335.313 70.781 C 335.896 71.383,336.443 71.875,336.529 71.875 C 336.615 71.875,336.208 71.383,335.625 70.781 C 335.042 70.180,334.495 69.688,334.409 69.688 C 334.323 69.688,334.729 70.180,335.313 70.781 M77.329 72.266 L 76.094 73.594 77.422 72.358 C 78.152 71.679,78.750 71.081,78.750 71.030 C 78.750 70.794,78.478 71.030,77.329 72.266 M322.188 72.031 C 322.771 72.633,323.318 73.125,323.404 73.125 C 323.490 73.125,323.083 72.633,322.500 72.031 C 321.917 71.430,321.370 70.938,321.284 70.938 C 321.198 70.938,321.604 71.430,322.188 72.031 M327.656 77.500 C 328.328 78.188,328.947 78.750,329.033 78.750 C 329.119 78.750,328.640 78.188,327.969 77.500 C 327.297 76.813,326.678 76.250,326.592 76.250 C 326.506 76.250,326.985 76.813,327.656 77.500 M71.858 77.734 L 70.781 78.906 71.953 77.829 C 73.044 76.827,73.269 76.563,73.030 76.563 C 72.978 76.563,72.450 77.090,71.858 77.734 M333.594 137.813 C 334.265 138.500,334.885 139.063,334.971 139.063 C 335.057 139.063,334.578 138.500,333.906 137.813 C 333.235 137.125,332.615 136.563,332.529 136.563 C 332.443 136.563,332.922 137.125,333.594 137.813 M99.453 152.734 C 102.676 152.785,107.949 152.785,111.172 152.734 C 114.395 152.683,111.758 152.642,105.313 152.642 C 98.867 152.642,96.230 152.683,99.453 152.734 M291.036 152.734 C 294.270 152.785,299.473 152.785,302.599 152.734 C 305.724 152.683,303.078 152.641,296.719 152.641 C 290.359 152.642,287.802 152.683,291.036 152.734 M154.773 168.438 C 154.773 169.211,154.834 169.527,154.908 169.141 C 154.983 168.754,154.983 168.121,154.908 167.734 C 154.834 167.348,154.773 167.664,154.773 168.438 M22.935 200.000 C 22.935 202.320,22.984 203.270,23.044 202.109 C 23.104 200.949,23.104 199.051,23.044 197.891 C 22.984 196.730,22.935 197.680,22.935 200.000 M376.995 200.000 C 376.995 202.148,377.045 203.027,377.106 201.953 C 377.167 200.879,377.167 199.121,377.106 198.047 C 377.045 196.973,376.995 197.852,376.995 200.000 M186.406 281.563 C 187.078 282.250,187.697 282.813,187.783 282.813 C 187.869 282.813,187.390 282.250,186.719 281.563 C 186.047 280.875,185.428 280.313,185.342 280.313 C 185.256 280.313,185.735 280.875,186.406 281.563 M164.208 313.906 C 164.208 323.016,164.248 326.697,164.297 322.087 C 164.345 317.478,164.345 310.025,164.297 305.525 C 164.248 301.025,164.208 304.797,164.208 313.906 M72.031 322.500 C 72.703 323.188,73.322 323.750,73.408 323.750 C 73.494 323.750,73.015 323.188,72.344 322.500 C 71.672 321.813,71.053 321.250,70.967 321.250 C 70.881 321.250,71.360 321.813,72.031 322.500 M327.642 322.578 L 326.406 323.906 327.734 322.671 C 328.970 321.522,329.206 321.250,328.970 321.250 C 328.919 321.250,328.321 321.848,327.642 322.578 M235.079 326.094 C 235.082 326.781,235.146 327.026,235.221 326.637 C 235.296 326.248,235.293 325.686,235.215 325.387 C 235.136 325.088,235.075 325.406,235.079 326.094 M77.344 327.813 C 78.015 328.500,78.635 329.063,78.721 329.063 C 78.807 329.063,78.328 328.500,77.656 327.813 C 76.985 327.125,76.365 326.563,76.279 326.563 C 76.193 326.563,76.672 327.125,77.344 327.813 M322.329 327.891 L 321.094 329.219 322.422 327.983 C 323.657 326.835,323.894 326.563,323.657 326.563 C 323.606 326.563,323.008 327.160,322.329 327.891 M64.531 329.375 C 65.203 330.063,65.822 330.625,65.908 330.625 C 65.994 330.625,65.515 330.063,64.844 329.375 C 64.172 328.688,63.553 328.125,63.467 328.125 C 63.381 328.125,63.860 328.688,64.531 329.375 M334.983 329.609 L 333.906 330.781 335.078 329.704 C 336.169 328.702,336.394 328.438,336.155 328.438 C 336.103 328.438,335.575 328.965,334.983 329.609 M70.313 335.156 C 70.896 335.758,71.443 336.250,71.529 336.250 C 71.615 336.250,71.208 335.758,70.625 335.156 C 70.042 334.555,69.495 334.063,69.409 334.063 C 69.323 334.063,69.729 334.555,70.313 335.156 M329.046 335.547 L 327.969 336.719 329.141 335.642 C 330.231 334.639,330.456 334.375,330.218 334.375 C 330.165 334.375,329.638 334.902,329.046 335.547 M155.313 344.844 C 155.896 345.445,156.443 345.938,156.529 345.938 C 156.615 345.938,156.208 345.445,155.625 344.844 C 155.042 344.242,154.495 343.750,154.409 343.750 C 154.323 343.750,154.729 344.242,155.313 344.844 M186.387 345.078 L 185.469 346.094 186.484 345.176 C 187.043 344.671,187.500 344.214,187.500 344.160 C 187.500 343.919,187.242 344.131,186.387 345.078 M198.047 377.106 C 199.121 377.167,200.879 377.167,201.953 377.106 C 203.027 377.045,202.148 376.995,200.000 376.995 C 197.852 376.995,196.973 377.045,198.047 377.106 " stroke="none" fill="#cab404" fill-rule="evenodd"></path></g></svg>